<svg width="49" height="48" viewBox="0 0 49 48" fill="none" xmlns="http://www.w3.org/2000/svg">
<path d="M36.5143 0C38.1583 0 39.7067 0.315412 41.1595 0.946237C42.6123 1.57706 43.8835 2.43728 44.9731 3.52688C46.0627 4.61649 46.9229 5.88769 47.5538 7.3405C48.1846 8.79331 48.5 10.3417 48.5 11.9857V35.957C48.5 37.601 48.1846 39.1589 47.5538 40.6308C46.9229 42.1027 46.0627 43.3835 44.9731 44.4731C43.8835 45.5627 42.6123 46.4229 41.1595 47.0538C39.7067 47.6846 38.1583 48 36.5143 48H12.4857C10.8417 48 9.29331 47.6846 7.8405 47.0538C6.38769 46.4229 5.11649 45.5627 4.02688 44.4731C2.93728 43.3835 2.07706 42.1027 1.44624 40.6308C0.815412 39.1589 0.5 37.601 0.5 35.957V11.9857C0.5 10.3417 0.815412 8.79331 1.44624 7.3405C2.07706 5.88769 2.93728 4.61649 4.02688 3.52688C5.11649 2.43728 6.38769 1.57706 7.8405 0.946237C9.29331 0.315412 10.8417 0 12.4857 0H36.5143ZM17.0161 18.0072H10.9946V37.5054H17.0161V18.0072ZM14.034 16.4588C14.8369 16.4588 15.5346 16.172 16.1272 15.5986C16.7198 15.0251 17.0161 14.3178 17.0161 13.4767C17.0161 12.6356 16.7198 11.9283 16.1272 11.3548C15.5346 10.7814 14.8369 10.4946 14.034 10.4946C13.193 10.4946 12.4761 10.7814 11.8835 11.3548C11.2909 11.9283 10.9946 12.6356 10.9946 13.4767C10.9946 14.3178 11.2909 15.0251 11.8835 15.5986C12.4761 16.172 13.193 16.4588 14.034 16.4588ZM38.0054 26.2079C38.0054 24.8315 37.6231 23.4839 36.8584 22.1649C36.0938 20.8459 35.0998 19.8423 33.8763 19.1541C32.7676 18.5424 31.4773 18.2174 30.0054 18.1792C28.5335 18.141 27.2049 18.3895 26.0197 18.9247V18.0072H19.9982V37.5054H26.0197V25.5771L28.4857 24.3728C28.7915 24.2198 29.2121 24.1434 29.7473 24.1434C30.2826 24.1434 30.684 24.2389 30.9516 24.4301C31.181 24.5448 31.4104 24.7933 31.6398 25.1756C31.8692 25.5579 31.9839 25.902 31.9839 26.2079V37.5054H38.0054V26.2079Z" fill="black"/>
</svg>
