<svg width="49" height="48" viewBox="0 0 49 48" fill="none" xmlns="http://www.w3.org/2000/svg">
<path d="M32.6147 24.0287C32.6147 23.3787 32.5191 22.6714 32.328 21.9068H34.7366V33.491C34.7366 33.7969 34.6314 34.0454 34.4211 34.2366C34.2109 34.4277 33.9528 34.5233 33.647 34.5233H14.7796C14.4737 34.5233 14.2252 34.4277 14.034 34.2366C13.8429 34.0454 13.7473 33.7969 13.7473 33.491V21.9068H16.0986C15.9074 22.6714 15.8118 23.3787 15.8118 24.0287C15.8118 25.1756 16.0317 26.2652 16.4713 27.2975C16.911 28.3297 17.5131 29.2186 18.2778 29.9642C19.0424 30.7097 19.9409 31.3023 20.9731 31.7419C22.0054 32.1816 23.095 32.4014 24.2419 32.4014C25.3889 32.4014 26.4785 32.1816 27.5108 31.7419C28.543 31.3023 29.4319 30.7097 30.1774 29.9642C30.9229 29.2186 31.5155 28.3297 31.9552 27.2975C32.3949 26.2652 32.6147 25.1756 32.6147 24.0287ZM24.2419 29.2473C23.5155 29.2473 22.8274 29.1135 22.1774 28.8459C21.5275 28.5783 20.9636 28.2055 20.4857 27.7276C20.0078 27.2497 19.635 26.6953 19.3674 26.0645C19.0998 25.4337 18.966 24.7551 18.966 24.0287C18.966 23.3023 19.0998 22.6141 19.3674 21.9642C19.635 21.3142 20.0078 20.7503 20.4857 20.2724C20.9636 19.7945 21.5275 19.4217 22.1774 19.1541C22.8274 18.8865 23.5155 18.7527 24.2419 18.7527C24.9683 18.7527 25.647 18.8865 26.2778 19.1541C26.9086 19.4217 27.463 19.7945 27.9409 20.2724C28.4188 20.7503 28.7915 21.3142 29.0591 21.9642C29.3268 22.6141 29.4606 23.3023 29.4606 24.0287C29.4606 24.7551 29.3268 25.4337 29.0591 26.0645C28.7915 26.6953 28.4188 27.2497 27.9409 27.7276C27.463 28.2055 26.9086 28.5783 26.2778 28.8459C25.647 29.1135 24.9683 29.2473 24.2419 29.2473ZM33.647 13.534C33.9528 13.534 34.2109 13.6296 34.4211 13.8208C34.6314 14.0119 34.7366 14.2605 34.7366 14.5663V17.7204C34.7366 18.0263 34.6314 18.2748 34.4211 18.466C34.2109 18.6571 33.9528 18.7527 33.647 18.7527H30.4928C30.187 18.7527 29.9385 18.6571 29.7473 18.466C29.5562 18.2748 29.4606 18.0263 29.4606 17.7204V14.5663C29.4606 14.2605 29.5562 14.0119 29.7473 13.8208C29.9385 13.6296 30.187 13.534 30.4928 13.534H33.647ZM36.457 0C38.101 0 39.6589 0.315412 41.1308 0.946237C42.6027 1.57706 43.8835 2.43728 44.9731 3.52688C46.0627 4.61649 46.9229 5.88769 47.5538 7.3405C48.1846 8.79331 48.5 10.3417 48.5 11.9857V35.957C48.5 37.601 48.1846 39.1589 47.5538 40.6308C46.9229 42.1027 46.0627 43.3835 44.9731 44.4731C43.8835 45.5627 42.6027 46.4229 41.1308 47.0538C39.6589 47.6846 38.101 48 36.457 48H12.4857C10.8417 48 9.29331 47.6846 7.8405 47.0538C6.38769 46.4229 5.11649 45.5627 4.02688 44.4731C2.93728 43.3835 2.07706 42.1027 1.44624 40.6308C0.815412 39.1589 0.5 37.601 0.5 35.957V11.9857C0.5 10.3417 0.815412 8.79331 1.44624 7.3405C2.07706 5.88769 2.93728 4.61649 4.02688 3.52688C5.11649 2.43728 6.38769 1.57706 7.8405 0.946237C9.29331 0.315412 10.8417 0 12.4857 0H36.457ZM37.8907 13.534C37.8907 12.6547 37.5848 11.9092 36.9731 11.2975C36.3614 10.6858 35.6159 10.3799 34.7366 10.3799H13.7473C12.868 10.3799 12.1225 10.6858 11.5108 11.2975C10.899 11.9092 10.5932 12.6547 10.5932 13.534V34.5233C10.5932 35.4026 10.899 36.1481 11.5108 36.7599C12.1225 37.3716 12.868 37.6774 13.7473 37.6774H34.7366C35.6159 37.6774 36.3614 37.3716 36.9731 36.7599C37.5848 36.1481 37.8907 35.4026 37.8907 34.5233V13.534Z" fill="black"/>
</svg>
