<svg width="120" height="16" viewBox="0 0 120 16" fill="none" xmlns="http://www.w3.org/2000/svg">
<path d="M0.380859 0.454543H2.48313L7.42631 12.5284H7.59677L12.54 0.454543H14.6422V15H12.9945V3.94886H12.8525L8.307 15H6.71609L2.17063 3.94886H2.02859V15H0.380859V0.454543Z" fill="black"/>
<path d="M21.1568 15.2557C20.4655 15.2557 19.8381 15.1255 19.2747 14.8651C18.7112 14.5999 18.2638 14.2187 17.9324 13.7216C17.6009 13.2197 17.4352 12.6136 17.4352 11.9034C17.4352 11.2784 17.5583 10.7718 17.8045 10.3835C18.0507 9.99053 18.3798 9.68276 18.7917 9.46023C19.2037 9.23769 19.6582 9.07197 20.1554 8.96307C20.6573 8.84943 21.1615 8.75947 21.6681 8.69318C22.331 8.60795 22.8684 8.54403 23.2804 8.50142C23.697 8.45407 24.0001 8.37594 24.1895 8.26704C24.3836 8.15814 24.4806 7.96875 24.4806 7.69886V7.64204C24.4806 6.94129 24.2889 6.39678 23.9054 6.00852C23.5266 5.62026 22.9513 5.42613 22.1795 5.42613C21.3793 5.42613 20.752 5.60132 20.2974 5.9517C19.8429 6.30208 19.5233 6.67613 19.3386 7.07386L17.7477 6.50568C18.0318 5.8428 18.4106 5.3267 18.8841 4.95738C19.3623 4.58333 19.8831 4.32291 20.4466 4.17613C21.0147 4.02462 21.5734 3.94886 22.1227 3.94886C22.4731 3.94886 22.8755 3.99148 23.3301 4.0767C23.7894 4.15719 24.2321 4.32528 24.6582 4.58096C25.0891 4.83665 25.4466 5.22254 25.7306 5.73863C26.0147 6.25473 26.1568 6.94602 26.1568 7.8125V15H24.4806V13.5227H24.3954C24.2818 13.7595 24.0924 14.0128 23.8272 14.2827C23.5621 14.5526 23.2093 14.7822 22.769 14.9716C22.3287 15.161 21.7913 15.2557 21.1568 15.2557ZM21.4125 13.75C22.0753 13.75 22.6341 13.6198 23.0886 13.3594C23.5479 13.099 23.8935 12.7628 24.1255 12.3509C24.3623 11.9389 24.4806 11.5057 24.4806 11.0511V9.51704C24.4096 9.60227 24.2534 9.6804 24.0119 9.75142C23.7752 9.81771 23.5005 9.87689 23.188 9.92898C22.8803 9.97632 22.5796 10.0189 22.286 10.0568C21.9972 10.09 21.7628 10.1184 21.5829 10.142C21.1473 10.1989 20.7401 10.2912 20.3613 10.419C19.9873 10.5421 19.6842 10.7292 19.4522 10.9801C19.225 11.2263 19.1113 11.5625 19.1113 11.9886C19.1113 12.571 19.3268 13.0114 19.7576 13.3097C20.1932 13.6032 20.7449 13.75 21.4125 13.75Z" fill="black"/>
<path d="M30.8922 8.4375V15H29.2161V4.09091H30.8354V5.79545H30.9775C31.2331 5.24148 31.6214 4.7964 32.1422 4.46023C32.6631 4.11932 33.3354 3.94886 34.1593 3.94886C34.8979 3.94886 35.5442 4.10038 36.0982 4.40341C36.6522 4.7017 37.083 5.15625 37.3908 5.76704C37.6986 6.3731 37.8525 7.14015 37.8525 8.06818V15H36.1763V8.18182C36.1763 7.32481 35.9538 6.6572 35.5087 6.17898C35.0636 5.69602 34.4528 5.45454 33.6763 5.45454C33.1413 5.45454 32.6631 5.57055 32.2417 5.80255C31.825 6.03456 31.4959 6.3731 31.2544 6.81818C31.013 7.26325 30.8922 7.80303 30.8922 8.4375Z" fill="black"/>
<path d="M45.6596 4.09091V5.51136H40.0062V4.09091H45.6596ZM41.6539 1.47727H43.3301V11.875C43.3301 12.3485 43.3987 12.7036 43.536 12.9403C43.6781 13.1723 43.858 13.3286 44.0758 13.4091C44.2984 13.4848 44.5327 13.5227 44.7789 13.5227C44.9636 13.5227 45.1151 13.5133 45.2335 13.4943C45.3519 13.4706 45.4466 13.4517 45.5176 13.4375L45.8585 14.9432C45.7448 14.9858 45.5862 15.0284 45.3826 15.071C45.179 15.1184 44.921 15.142 44.6085 15.142C44.135 15.142 43.671 15.0402 43.2164 14.8366C42.7666 14.633 42.3926 14.3229 42.0943 13.9062C41.8007 13.4896 41.6539 12.964 41.6539 12.3295V1.47727Z" fill="black"/>
<path d="M51.3912 15.2557C50.6999 15.2557 50.0725 15.1255 49.5091 14.8651C48.9456 14.5999 48.4982 14.2187 48.1667 13.7216C47.8353 13.2197 47.6696 12.6136 47.6696 11.9034C47.6696 11.2784 47.7927 10.7718 48.0389 10.3835C48.2851 9.99053 48.6142 9.68276 49.0261 9.46023C49.438 9.23769 49.8926 9.07197 50.3897 8.96307C50.8916 8.84943 51.3959 8.75947 51.9025 8.69318C52.5654 8.60795 53.1028 8.54403 53.5147 8.50142C53.9314 8.45407 54.2344 8.37594 54.4238 8.26704C54.618 8.15814 54.715 7.96875 54.715 7.69886V7.64204C54.715 6.94129 54.5233 6.39678 54.1397 6.00852C53.7609 5.62026 53.1857 5.42613 52.4139 5.42613C51.6137 5.42613 50.9863 5.60132 50.5318 5.9517C50.0772 6.30208 49.7576 6.67613 49.573 7.07386L47.9821 6.50568C48.2662 5.8428 48.6449 5.3267 49.1184 4.95738C49.5967 4.58333 50.1175 4.32291 50.6809 4.17613C51.2491 4.02462 51.8078 3.94886 52.3571 3.94886C52.7074 3.94886 53.1099 3.99148 53.5645 4.0767C54.0237 4.15719 54.4664 4.32528 54.8926 4.58096C55.3234 4.83665 55.6809 5.22254 55.965 5.73863C56.2491 6.25473 56.3912 6.94602 56.3912 7.8125V15H54.715V13.5227H54.6298C54.5162 13.7595 54.3268 14.0128 54.0616 14.2827C53.7965 14.5526 53.4437 14.7822 53.0034 14.9716C52.563 15.161 52.0256 15.2557 51.3912 15.2557ZM51.6468 13.75C52.3097 13.75 52.8684 13.6198 53.323 13.3594C53.7823 13.099 54.1279 12.7628 54.3599 12.3509C54.5967 11.9389 54.715 11.5057 54.715 11.0511V9.51704C54.644 9.60227 54.4877 9.6804 54.2463 9.75142C54.0095 9.81771 53.7349 9.87689 53.4224 9.92898C53.1146 9.97632 52.814 10.0189 52.5204 10.0568C52.2316 10.09 51.9972 10.1184 51.8173 10.142C51.3817 10.1989 50.9745 10.2912 50.5957 10.419C50.2217 10.5421 49.9186 10.7292 49.6866 10.9801C49.4593 11.2263 49.3457 11.5625 49.3457 11.9886C49.3457 12.571 49.5611 13.0114 49.992 13.3097C50.4276 13.6032 50.9792 13.75 51.6468 13.75Z" fill="black"/>
<path d="M67.1777 6.53409L65.6721 6.96023C65.5774 6.70928 65.4377 6.46543 65.253 6.22869C65.0731 5.98721 64.8269 5.78835 64.5144 5.6321C64.2019 5.47585 63.8018 5.39773 63.3141 5.39773C62.6465 5.39773 62.0901 5.55161 61.6451 5.85937C61.2047 6.1624 60.9846 6.54829 60.9846 7.01704C60.9846 7.43371 61.1361 7.76278 61.4391 8.00426C61.7421 8.24574 62.2156 8.44697 62.8596 8.60795L64.4789 9.00568C65.4543 9.24242 66.1811 9.60464 66.6593 10.0923C67.1375 10.5753 67.3766 11.1979 67.3766 11.9602C67.3766 12.5852 67.1967 13.1439 66.8368 13.6364C66.4817 14.1288 65.9846 14.517 65.3454 14.8011C64.7061 15.0852 63.9628 15.2273 63.1152 15.2273C62.0025 15.2273 61.0816 14.9858 60.3525 14.5028C59.6233 14.0199 59.1616 13.3144 58.9675 12.3864L60.5584 11.9886C60.7099 12.5758 60.9964 13.0161 61.4178 13.3097C61.8439 13.6032 62.4003 13.75 63.0868 13.75C63.8681 13.75 64.4883 13.5843 64.9476 13.2528C65.4116 12.9167 65.6436 12.5142 65.6436 12.0455C65.6436 11.6667 65.5111 11.3494 65.2459 11.0937C64.9808 10.8333 64.5736 10.6392 64.0243 10.5114L62.2061 10.0852C61.2071 9.84848 60.4732 9.48153 60.0044 8.98437C59.5404 8.48248 59.3084 7.85511 59.3084 7.10227C59.3084 6.48674 59.4812 5.94223 59.8269 5.46875C60.1773 4.99526 60.6531 4.62358 61.2544 4.35369C61.8605 4.0838 62.5471 3.94886 63.3141 3.94886C64.3936 3.94886 65.2412 4.1856 65.8567 4.65909C66.477 5.13257 66.9173 5.75757 67.1777 6.53409Z" fill="black"/>
<path d="M73.4725 0.454544H75.5748L80.5179 12.5284H80.6884L85.6316 0.454544H87.7339V15H86.0861V3.94886H85.9441L81.3986 15H79.8077L75.2623 3.94886H75.1202V15H73.4725V0.454544Z" fill="black"/>
<path d="M91.0382 15V4.09091H92.7143V15H91.0382ZM91.8905 2.27273C91.5638 2.27273 91.282 2.16146 91.0453 1.93892C90.8133 1.71638 90.6973 1.44886 90.6973 1.13636C90.6973 0.823864 90.8133 0.556343 91.0453 0.333805C91.282 0.111268 91.5638 0 91.8905 0C92.2172 0 92.4965 0.111268 92.7285 0.333805C92.9653 0.556343 93.0836 0.823864 93.0836 1.13636C93.0836 1.44886 92.9653 1.71638 92.7285 1.93892C92.4965 2.16146 92.2172 2.27273 91.8905 2.27273Z" fill="black"/>
<path d="M97.4604 0.454544V15H95.7843V0.454544H97.4604Z" fill="black"/>
<path d="M102.093 11.0227L102.064 8.94886H102.405L107.178 4.09091H109.252L104.167 9.23295H104.025L102.093 11.0227ZM100.53 15V0.454544H102.207V15H100.53ZM107.462 15L103.201 9.60227L104.394 8.4375L109.593 15H107.462Z" fill="black"/>
<path d="M114.62 15.2557C113.928 15.2557 113.301 15.1255 112.737 14.8651C112.174 14.5999 111.727 14.2188 111.395 13.7216C111.064 13.2197 110.898 12.6136 110.898 11.9034C110.898 11.2784 111.021 10.7718 111.267 10.3835C111.513 9.99053 111.843 9.68276 112.254 9.46022C112.666 9.23769 113.121 9.07197 113.618 8.96307C114.12 8.84943 114.624 8.75947 115.131 8.69318C115.794 8.60795 116.331 8.54403 116.743 8.50142C117.16 8.45407 117.463 8.37595 117.652 8.26704C117.846 8.15814 117.943 7.96875 117.943 7.69886V7.64204C117.943 6.94129 117.752 6.39678 117.368 6.00852C116.989 5.62026 116.414 5.42614 115.642 5.42614C114.842 5.42614 114.215 5.60132 113.76 5.9517C113.306 6.30208 112.986 6.67614 112.801 7.07386L111.21 6.50568C111.495 5.8428 111.873 5.3267 112.347 4.95739C112.825 4.58333 113.346 4.32292 113.909 4.17614C114.477 4.02462 115.036 3.94886 115.585 3.94886C115.936 3.94886 116.338 3.99148 116.793 4.0767C117.252 4.15719 117.695 4.32528 118.121 4.58096C118.552 4.83665 118.909 5.22254 119.193 5.73864C119.477 6.25473 119.62 6.94602 119.62 7.8125V15H117.943V13.5227H117.858C117.745 13.7595 117.555 14.0128 117.29 14.2827C117.025 14.5526 116.672 14.7822 116.232 14.9716C115.791 15.161 115.254 15.2557 114.62 15.2557ZM114.875 13.75C115.538 13.75 116.097 13.6198 116.551 13.3594C117.011 13.099 117.356 12.7628 117.588 12.3509C117.825 11.9389 117.943 11.5057 117.943 11.0511V9.51704C117.872 9.60227 117.716 9.6804 117.475 9.75142C117.238 9.81771 116.963 9.87689 116.651 9.92897C116.343 9.97632 116.042 10.0189 115.749 10.0568C115.46 10.09 115.226 10.1184 115.046 10.142C114.61 10.1989 114.203 10.2912 113.824 10.419C113.45 10.5421 113.147 10.7292 112.915 10.9801C112.688 11.2263 112.574 11.5625 112.574 11.9886C112.574 12.571 112.789 13.0114 113.22 13.3097C113.656 13.6032 114.208 13.75 114.875 13.75Z" fill="black"/>
</svg>
